<svg width="40" height="24" viewBox="0 0 40 24" fill="none" xmlns="http://www.w3.org/2000/svg">
<g clip-path="url(#clip0_1_28)">
<path d="M23 21V17.5C23 16.5 23.1 16.1 22.5 15.5C25.3 15.2 28 14.1 28 9.50001C27.9988 8.30498 27.5325 7.15732 26.7 6.30001C27.0905 5.26198 27.0545 4.11164 26.6 3.10001C26.6 3.10001 25.5 2.80001 23.1 4.40001C21.0672 3.8706 18.9328 3.8706 16.9 4.40001C14.5 2.80001 13.4 3.10001 13.4 3.10001C12.9455 4.11164 12.9095 5.26198 13.3 6.30001C12.4675 7.15732 12.0012 8.30498 12 9.50001C12 14.1 14.7 15.2 17.5 15.5C16.9 16.1 16.9 16.7 17 17.5V21M17 19C12.7 20.4 12.7 16.5 11 16L17 19Z" stroke="#4B4B4B" stroke-width="1.25" stroke-linecap="round" stroke-linejoin="round"/>
</g>
<defs>
<clipPath id="clip0_1_28">
<rect width="24" height="24" fill="white" transform="translate(8)"/>
</clipPath>
</defs>
</svg>
